Coordinates
version=1
nRows=5
nColumns=63
inDegrees=yes

Units are S.I. units (second, meters, Newtons, ...)
If the header above contains a line with 'inDegrees', this indicates whether rotational values are in degrees (yes) or radians (no).

endheader
time	pelvis_tilt	pelvis_list	pelvis_rotation	pelvis_tx	pelvis_ty	pelvis_tz	hip_flexion_r	hip_adduction_r	hip_rotation_r	knee_angle_r	knee_angle_r_beta	ankle_angle_r	subtalar_angle_r	mtp_angle_r	hip_flexion_l	hip_adduction_l	hip_rotation_l	knee_angle_l	knee_angle_l_beta	ankle_angle_l	subtalar_angle_l	mtp_angle_l	L5_S1_Flex_Ext	L5_S1_Lat_Bending	L5_S1_axial_rotation	L4_L5_Flex_Ext	L4_L5_Lat_Bending	L4_L5_axial_rotation	L3_L4_Flex_Ext	L3_L4_Lat_Bending	L3_L4_axial_rotation	L2_L3_Flex_Ext	L2_L3_Lat_Bending	L2_L3_axial_rotation	L1_L2_Flex_Ext	L1_L2_Lat_Bending	L1_L2_axial_rotation	L1_T12_Flex_Ext	L1_T12_Lat_Bending	L1_T12_axial_rotation	Abs_r3	Abs_r2	Abs_r1	Abs_t1	Abs_t2	neck_flexion	neck_bending	neck_rotation	arm_flex_r	arm_add_r	arm_rot_r	elbow_flex_r	pro_sup_r	wrist_flex_r	wrist_dev_r	arm_flex_l	arm_add_l	arm_rot_l	elbow_flex_l	pro_sup_l	wrist_flex_l	wrist_dev_l
      4.05172414	      5.36742749	      1.85561274	     92.74151759	      0.38429351	      0.87592199	      0.69134599	      4.00141637	      8.62799471	     -0.43038787	      9.21097281	      0.16076180	     33.38957066	      0.65906451	      0.00000000	     16.11232648	    -10.43783709	      4.71033549	     26.20642561	      0.45738841	     42.23564362	     -0.54024169	      0.00000000	      0.05200969	      1.34587930	     -0.92549516	      0.09658720	      1.79001946	     -0.98333860	      0.08544673	      3.27237092	     -0.98333860	      0.05944188	      3.27237092	     -0.80980826	      0.04829620	      2.74451706	     -0.75196482	      0.02971834	      2.08476703	     -0.69412137	      0.37150004	     15.22485577	     -5.14732642	      0.00000000	      0.00000000	     16.00511559	     -7.26619780	     10.86535312	     12.83424262	    -18.18024741	     61.56688203	     46.64207734	     88.46600432	     11.14630567	      5.83851706	     25.49065800	     -1.99475830	     93.06113158	     38.30246042	     31.07954301	      6.01346376	     -5.99949517
      4.06896552	      5.30358307	      2.17391814	     92.93870208	      0.38460256	      0.87618258	      0.69264510	      3.89705586	      8.57421233	     -0.46124674	      9.35063504	      0.16319937	     33.53919576	      0.75195514	      0.00000000	     16.11027490	    -10.37901875	      4.65743772	     26.53429895	      0.46311088	     42.26796886	     -0.55235766	      0.00000000	      0.01025189	      1.34987862	     -0.83579489	      0.01903879	      1.79533856	     -0.88803207	      0.01684283	      3.28209487	     -0.88803207	      0.01171689	      3.28209487	     -0.73132053	      0.00951991	      2.75267248	     -0.67908335	      0.00585793	      2.09096198	     -0.62684617	      0.07322824	     15.27009689	     -4.64844045	      0.00000000	      0.00000000	     15.51440747	     -8.08637485	     10.27685493	     12.98644494	    -18.51566038	     61.68358296	     46.97023020	     88.81029868	     10.17035109	      5.76152684	     25.64963115	     -1.61972788	     93.31229859	     38.05033744	     31.23526500	      6.06057067	     -5.68970128
      4.08620690	      5.38144993	      2.27058976	     92.81126321	      0.38529563	      0.87604136	      0.69373660	      3.99312254	      8.66968339	     -0.37335932	      9.39823007	      0.16403006	     33.73424044	      1.23162039	      0.00000000	     16.18052584	    -10.52472420	      4.49341327	     26.67812762	      0.46562117	     42.33126291	     -0.59872910	      0.00000000	     -0.01365103	      1.35572103	     -0.66997364	     -0.02535133	      1.80310897	     -0.71184700	     -0.02242728	      3.29630011	     -0.71184700	     -0.01560176	      3.29630011	     -0.58622694	     -0.01267635	      2.76458632	     -0.54435359	     -0.00780020	      2.10001187	     -0.50248023	     -0.09750795	     15.33618742	     -3.72619242	      0.00000000	      0.00000000	     15.64876648	     -8.98372441	      8.68467063	     13.05541887	    -18.94680970	     62.16028387	     47.35339267	     88.97962405	      7.15537113	      5.17587367	     25.66710048	     -1.01290652	     93.34126365	     37.24258802	     31.07376957	      6.63213618	     -5.03076939
      4.10344828	      5.31367113	      2.37437345	     92.88239623	      0.38588993	      0.87569089	      0.69451903	      4.04158002	      8.63363928	     -0.09444501	      9.36162516	      0.16339118	     34.12722786	      1.46033541	      0.00000000	     16.35253600	    -10.48299409	      4.53463289	     27.03910897	      0.47192148	     42.42169698	     -0.53930858	      0.00000000	     -0.03668694	      1.34422660	     -0.63124272	     -0.06813132	      1.78782138	     -0.67069539	     -0.06027298	      3.26835256	     -0.67069539	     -0.04192951	      3.26835256	     -0.55233738	     -0.03406750	      2.74114689	     -0.51288471	     -0.02096292	      2.08220701	     -0.47343204	     -0.26205117	     15.20616018	     -3.51078262	      0.00000000	      0.00000000	     15.60438597	     -9.10666770	      8.51006731	     13.26584821	    -18.76754754	     62.11162703	     46.96173937	     89.04183974	      6.40695511	      5.03665364	     25.51608157	     -0.71438485	     93.12013811	     36.51949157	     30.78008044	      6.54993305	     -4.85861941
      4.12068966	      5.15020203	      2.43693004	     92.49385799	      0.38694470	      0.87532076	      0.69512271	      4.13888836	      8.47017763	     -0.21239715	      9.41963129	      0.16440358	     34.77078604	      2.67213410	      0.00000000	     16.28737122	    -10.50085166	      3.90314253	     27.14600772	      0.47378721	     42.51712466	     -0.36456948	      0.00000000	     -0.04059252	      1.31314766	     -0.48564870	     -0.07538436	      1.74648639	     -0.51600175	     -0.06668944	      3.19278722	     -0.51600175	     -0.04639319	      3.19278722	     -0.42494262	     -0.03769421	      2.67777070	     -0.39458957	     -0.02319456	      2.03406572	     -0.36423653	     -0.28994828	     14.85458894	     -2.70103240	      0.00000000	      0.00000000	     15.07772375	     -9.23672799	      7.46558459	     13.64373679	    -18.66526605	     63.75072818	     46.30192809	     89.00542844	      2.60468136	      2.51884014	     25.55000459	     -0.42677442	     93.60304560	     35.97006732	     27.98206117	      6.91674861	     -3.86008020
